<svg xmlns="http://www.w3.org/2000/svg" width="40" height="40" fill="none"><g clip-path="url(#a)"><path fill="#545455" d="M40 20C40 8.9543 31.0457 0 20 0S0 8.9543 0 20c0 9.9824 7.31367 18.2566 16.875 19.757V25.7813h-5.0781V20h5.0781v-4.4062c0-5.0125 2.9859-7.7813 7.5543-7.7813 2.1875 0 4.4769.39063 4.4769.39063V13.125h-2.5218c-2.4844 0-3.2594 1.5418-3.2594 3.125V20h5.5469l-.8867 5.7813H23.125V39.757C32.6863 38.2566 40 29.9824 40 20Z"/></g><defs><clipPath id="a"><path fill="#fff" d="M0 0h40v40H0z"/></clipPath></defs></svg>