<svg xmlns="http://www.w3.org/2000/svg" width="40" height="40" fill="none"><g fill="#545455" clip-path="url(#a)"><path d="M20 3.60156c5.3438 0 5.9766.02344 8.0781.11719 1.9532.08594 3.0078.41406 3.711.6875.9297.35938 1.6015.79688 2.2968 1.49219.7032.70312 1.1329 1.36719 1.4922 2.29687.2735.70313.6016 1.76563.6875 3.71089.0938 2.1094.1172 2.7422.1172 8.0782 0 5.3437-.0234 5.9765-.1172 8.0781-.0859 1.9531-.414 3.0078-.6875 3.7109-.3593.9297-.7968 1.6016-1.4922 2.2969-.7031.7031-1.3671 1.1328-2.2968 1.4922-.7032.2734-1.7657.6016-3.711.6875-2.1093.0938-2.7422.1172-8.0781.1172-5.3437 0-5.9766-.0234-8.0781-.1172-1.95315-.0859-3.00784-.4141-3.71096-.6875-.92969-.3594-1.60156-.7969-2.29688-1.4922-.70312-.7031-1.13281-1.3672-1.49218-2.2969-.27344-.7031-.60157-1.7656-.6875-3.7109-.09375-2.1094-.11719-2.7422-.11719-8.0781 0-5.3438.02344-5.9766.11719-8.0782.08593-1.95308.41406-3.00776.6875-3.71089.35937-.92968.79687-1.60156 1.49218-2.29687.70313-.70313 1.36719-1.13281 2.29688-1.49219.70312-.27344 1.76562-.60156 3.71096-.6875C14.0234 3.625 14.6563 3.60156 20 3.60156ZM20 0c-5.4297 0-6.1094.02344-8.2422.11719-2.12499.09375-3.58592.4375-4.85155.92969-1.32031.51562-2.4375 1.19531-3.54687 2.3125-1.11719 1.10937-1.79688 2.22656-2.3125 3.53906C.55468 8.17188.21094 9.625.11718 11.75.02345 13.8906 0 14.5703 0 20s.02344 6.1094.11719 8.2422c.09375 2.125.4375 3.5859.92969 4.8516.51562 1.3203 1.19531 2.4374 2.3125 3.5468 1.10937 1.1094 2.22656 1.7969 3.53906 2.3047 1.27344.4922 2.72656.8359 4.85156.9297 2.1328.0938 2.8125.1172 8.2422.1172s6.1094-.0234 8.2422-.1172c2.125-.0938 3.5859-.4375 4.8515-.9297 1.3125-.5078 2.4297-1.1953 3.5391-2.3047s1.7969-2.2265 2.3047-3.539c.4922-1.2735.8359-2.7266.9297-4.8516.0937-2.1328.1172-2.8125.1172-8.2422s-.0235-6.1094-.1172-8.2422c-.0938-2.12497-.4375-3.58591-.9297-4.85154-.4922-1.32812-1.1719-2.44531-2.2891-3.55468-1.1093-1.10938-2.2265-1.79688-3.539-2.30469C31.8281.5625 30.375.21875 28.25.125 26.1094.02344 25.4297 0 20 0Z"/><path d="M20 9.72656C14.3281 9.72656 9.72656 14.3281 9.72656 20c0 5.6719 4.60154 10.2734 10.27344 10.2734 5.6719 0 10.2734-4.6015 10.2734-10.2734 0-5.6719-4.6015-10.27344-10.2734-10.27344Zm0 16.93754c-3.6797 0-6.6641-2.9844-6.6641-6.6641 0-3.6797 2.9844-6.6641 6.6641-6.6641 3.6797 0 6.6641 2.9844 6.6641 6.6641 0 3.6797-2.9844 6.6641-6.6641 6.6641ZM33.0781 9.32032c0 1.32808-1.0781 2.39848-2.3984 2.39848-1.3281 0-2.3985-1.0782-2.3985-2.39848 0-1.32813 1.0782-2.39844 2.3985-2.39844C32 6.92188 33.0781 8 33.0781 9.32032Z"/></g><defs><clipPath id="a"><path fill="#fff" d="M0 0h40v40H0z"/></clipPath></defs></svg>