<svg xmlns="http://www.w3.org/2000/svg" width="44" height="59" fill="none" viewBox="0 0 44 59"><path fill="#DE5E49" d="M22 58.9999C21.4387 59.0041 20.8901 58.8317 20.4306 58.5067C19.9711 58.1817 19.6236 57.7203 19.4365 57.1867C16.567 49.2109 5.86349 37.2712 5.7487 37.1459L5.68175 37.0591C2.82659 33.8753 0.948879 29.9248 0.276313 25.6864C-0.396254 21.448 0.165212 17.104 1.89263 13.181C3.62005 9.25798 6.43922 5.92455 10.0083 3.58493C13.5773 1.24531 17.7429 0 22 0C26.2571 0 30.4227 1.24531 33.9917 3.58493C37.5608 5.92455 40.3799 9.25798 42.1074 13.181C43.8348 17.104 44.3963 21.448 43.7237 25.6864C43.0511 29.9248 41.1734 33.8753 38.3183 37.0591L38.2513 37.1459C38.1365 37.2712 27.433 49.2109 24.5635 57.1867C24.3776 57.7211 24.0304 58.1834 23.5706 58.5086C23.1109 58.8338 22.5616 59.0056 22 58.9999Z"/><path fill="#FFF6F4" d="M42 22.2104C42 16.8503 39.8929 11.7097 36.1421 7.91949C32.3914 4.1293 27.3043 2 22 2C16.6957 2 11.6086 4.1293 7.85786 7.91949C4.10714 11.7097 2 16.8503 2 22.2104C2.00015 27.2507 3.87292 32.1073 7.24761 35.8188C7.24761 35.8188 18.2286 48.0316 21.2571 56.4526C21.311 56.6123 21.413 56.7509 21.5488 56.8491C21.6846 56.9472 21.8473 57 22.0143 57C22.1812 57 22.344 56.9472 22.4797 56.8491C22.6155 56.7509 22.7175 56.6123 22.7714 56.4526C25.8 48.0316 36.7714 35.8188 36.7714 35.8188C40.14 32.1049 42.006 27.2483 42 22.2104Z"/><g clip-path="url(#clip0_460_559)"><path stroke="#598B8B" stroke-linecap="round" stroke-linejoin="round" d="M34 31.2368L30.349 27.8049C29.7821 27.2721 29.0111 26.9736 28.2098 26.9736H27.1969L25.6851 27.6842H22.6615C21.83 27.6842 21.1497 28.3236 21.1497 29.1052V30.5263"/><path stroke="#598B8B" stroke-linecap="round" stroke-linejoin="round" d="M29.4647 35.5L27.9529 34.0789H18.882L12.0789 27.6842L13.2656 27.4071C14.4222 27.1371 15.6543 27.3858 16.5841 28.0892L19.6379 30.5263H25.6852"/><path stroke="#DE5E49" stroke-linecap="round" stroke-linejoin="round" d="M22.0567 22.7105L21.9055 23.421L20.3937 24.8421H18.8819L17.3701 23.421L15.8583 24.8421H14.3465L12.8347 23.421L11.5572 17.41C11.406 16.7066 11.5572 15.9818 11.9805 15.385C12.5096 14.6318 13.4091 14.1842 14.3691 14.1842H20.3937"/><path stroke="#DE5E49" stroke-linecap="round" stroke-linejoin="round" d="M17.3702 14.1843L15.8584 11.3422"/><path stroke="#F08E40" stroke-linecap="round" stroke-linejoin="round" d="M25.9724 14.1487C26.2218 12.678 25.0048 11.3422 23.4174 11.3422C21.83 11.3422 20.6205 12.678 20.8624 14.1487L22.5405 24.1387C22.6086 24.5437 22.979 24.8422 23.4174 24.8422C23.8558 24.8422 24.2262 24.5437 24.2942 24.1387L25.9724 14.1487Z"/><path stroke="#F08E40" stroke-linecap="round" stroke-linejoin="round" d="M22.6614 9.21053L23.4173 11.3421L24.9291 8.5"/></g><defs><clipPath id="clip0_460_559"><rect width="30" height="30" fill="#fff" transform="translate(7 7)"/></clipPath></defs></svg>