<svg xmlns="http://www.w3.org/2000/svg" width="40" height="40" fill="none"><g clip-path="url(#a)"><path fill="#545455" d="M12.5836 36.25c15.0906 0 23.3469-12.5055 23.3469-23.3469 0-.3516-.0078-.7109-.0235-1.0625A16.66574 16.66574 0 0 0 40 7.59216a16.18016 16.18016 0 0 1-4.7102 1.28907 8.2507 8.2507 0 0 0 3.6086-4.53829 16.49496 16.49496 0 0 1-5.2093 1.99141 8.21737 8.21737 0 0 0-4.6563-2.4776 8.21707 8.21707 0 0 0-5.2032.86341 8.21735 8.21735 0 0 0-3.6065 3.84869 8.21746 8.21746 0 0 0-.5239 5.24835 23.30853 23.30853 0 0 1-9.3659-2.487 23.30846 23.30846 0 0 1-7.54502-6.08101c-1.04761 1.80622-1.36819 3.94355-.89656 5.97761.47162 2.0341 1.70005 3.8123 3.43562 4.9732a8.21638 8.21638 0 0 1-3.71796-1.0235v.1016a8.2028 8.2028 0 0 0 1.85447 5.1998 8.20338 8.20338 0 0 0 4.7299 2.8471 8.15797 8.15797 0 0 1-3.70234.1406 8.22274 8.22274 0 0 0 2.91821 4.0783 8.22273 8.22273 0 0 0 4.74428 1.6248c-2.90653 2.2831-6.49694 3.5215-10.19296 3.5157A16.45738 16.45738 0 0 1 0 32.564a23.28139 23.28139 0 0 0 12.5836 3.686Z"/></g><defs><clipPath id="a"><path fill="#fff" d="M0 0h40v40H0z"/></clipPath></defs></svg>