<svg xmlns="http://www.w3.org/2000/svg" width="50" height="61" fill="none">
  <path stroke="#598B8B" stroke-linecap="round" stroke-linejoin="round" stroke-width="3" d="M48.0001 49.8421 40.5357 42.47c-1.159-1.1447-2.7353-1.7858-4.3735-1.7858h-2.0708l-3.0908 1.5263H24.819c-1.7 0-3.0909 1.3737-3.0909 3.0527v3.0526"/>
  <path stroke="#598B8B" stroke-linecap="round" stroke-linejoin="round" stroke-width="3" d="m38.7276 59-3.0908-3.0526H17.0919L3.18323 42.2105l2.4263-.5952c2.36447-.58 4.88347-.0458 6.78437 1.4652l6.2434 5.2353h12.3632"/>
  <path stroke="#DE5E49" stroke-linecap="round" stroke-linejoin="round" stroke-width="3" d="m23.5826 31.5264-.3091 1.5263-3.0908 3.0526h-3.0908l-3.0908-3.0526-3.0908 3.0526H7.81944l-3.09081-3.0526L2.11689 20.14c-.30908-1.511 0-3.0678.86542-4.35 1.08179-1.6178 2.92083-2.5794 4.88349-2.5794h12.3169M14.0011 13.2105l-3.0908-6.10528"/>
  <path stroke="#F08E40" stroke-linecap="round" stroke-linejoin="round" stroke-width="3" d="M31.5877 13.1342c.51-3.15951-1.9781-6.02898-5.2234-6.02898-3.2454 0-5.718 2.86947-5.2235 6.02898l3.4308 21.46c.1391.87.8963 1.511 1.7927 1.511.8963 0 1.6536-.641 1.7926-1.511l3.4308-21.46Z"/>
  <path stroke="#F08E40" stroke-linecap="round" stroke-linejoin="round" stroke-width="2" d="m24.8188 2.52632 1.5455 4.57894L29.4551 1"/>
</svg>
