<svg xmlns="http://www.w3.org/2000/svg" width="240" height="115" fill="none"><path fill="#DE5E49" d="M9.16925 54.392c-2.176 0-3.86133-.1067-5.056-.32-1.152-.2133-1.96266-.5547-2.432-1.024-.46933-.4693-.704-1.1307-.704-1.984 0-1.1093.512-2.0267 1.536-2.752.896-.5547 1.472-1.3653 1.728-2.432.256-1.024.384-2.6453.384-4.864V22.84c0-2.2187-.49066-3.52-1.472-3.904-.81066-.3413-1.408-.704-1.792-1.088-.384-.384-.576-.9173-.576-1.6 0-.8533.256-1.5147.768-1.984.512-.512 1.25867-1.0027 2.24-1.472 1.408-.6827 3.072-1.216 4.992-1.6 1.96265-.4267 3.86135-.64 5.69605-.64 1.3653 0 2.368.2347 3.008.704.64.4267.96 1.2587.96 2.496v1.792c0 .9387.1493 1.408.448 1.408.128 0 .5973-.6187 1.408-1.856.8533-1.28 2.0693-2.432 3.648-3.456 1.5786-1.024 3.52-1.536 5.824-1.536 2.1333 0 4.0746.576 5.824 1.728 1.792 1.152 3.2 2.8587 4.224 5.12 1.0666 2.2613 1.6 4.9707 1.6 8.128 0 3.4987-.704 6.6773-2.112 9.536-1.408 2.8587-3.3494 5.0987-5.824 6.72-2.432 1.6213-5.1627 2.432-8.192 2.432-2.2614 0-4.0747-.5547-5.44-1.664-.512-.4267-.832-.64-.96-.64-.2987 0-.448.384-.448 1.152v.448c0 1.1947.1706 2.2187.512 3.072.3413.8533.96 1.5573 1.856 2.112.512.384.896.7893 1.152 1.216.2986.4267.448.96.448 1.6 0 .8533-.2347 1.5147-.704 1.984-.4267.4693-1.2374.8107-2.432 1.024-1.1947.2133-2.944.32-5.248.32H9.16925ZM23.2493 37.24c1.024 0 1.92-.512 2.688-1.536.768-1.0667 1.152-2.624 1.152-4.672 0-3.1573-.4267-5.888-1.28-8.192-.8107-2.3467-2.048-3.52-3.712-3.52-1.152 0-2.048.5333-2.688 1.6-.64 1.024-.96 2.6027-.96 4.736v1.664c0 3.4133.4266 5.9307 1.28 7.552.896 1.5787 2.0693 2.368 3.52 2.368Zm33.9285 6.528c-4.0107 0-6.8907-.9387-8.64-2.816-1.7494-1.8773-2.624-4.1813-2.624-6.912 0-3.1147 1.3653-5.5467 4.096-7.296 2.7733-1.7493 6.3786-2.816 10.816-3.2 2.0053-.1707 3.3493-.384 4.032-.64.6826-.256.96-.832.832-1.728l-.064-.768c-.1707-1.3227-.512-2.304-1.024-2.944-.512-.64-1.3014-.96-2.368-.96-1.8347 0-3.0934.96-3.776 2.88-.512 1.28-1.2374 2.24-2.176 2.88-.9387.64-2.1974.96-3.776.96-1.024 0-1.984-.384-2.88-1.152-.8534-.8107-1.28-1.8133-1.28-3.008 0-1.792.768-3.3493 2.304-4.672 1.5786-1.3653 3.648-2.4107 6.208-3.136 2.56-.768 5.2906-1.152 8.192-1.152 3.4986 0 6.2506.512 8.256 1.536 2.048.9813 3.52 2.368 4.416 4.16.896 1.7493 1.4933 3.9253 1.792 6.528l1.216 9.92c.0853.8107.2346 1.3867.448 1.728.2133.3413.512.5547.896.64.256.0853.576.1493.96.192.4266.0427.7466.1067.96.192.7253.3413 1.088 1.0027 1.088 1.984 0 1.1093-.3414 2.176-1.024 3.2-.64.9813-1.5787 1.792-2.816 2.432-1.1947.5973-2.5814.896-4.16.896-3.6267 0-6.0587-1.3653-7.296-4.096-.3414-.6827-.6187-1.024-.832-1.024-.1707 0-.6614.4907-1.472 1.472-.768.9813-1.984 1.8773-3.648 2.688-1.6214.8107-3.84 1.216-6.656 1.216Zm6.528-7.104c.9386 0 1.728-.384 2.368-1.152.6826-.8107 1.024-1.8773 1.024-3.2 0-.4267-.0214-.768-.064-1.024l-.256-1.6c-.0854-.8533-.3627-1.4507-.832-1.792-.4267-.3413-1.1307-.512-2.112-.512-2.6454 0-3.968 1.5147-3.968 4.544 0 1.536.3626 2.7093 1.088 3.52.768.8107 1.6853 1.216 2.752 1.216Zm33.9749 6.592c-2.2186 0-3.904-.0853-5.056-.256-1.152-.2133-1.9626-.5547-2.432-1.024-.4693-.4693-.704-1.152-.704-2.048 0-1.152.512-2.0693 1.536-2.752.896-.512 1.4507-1.28 1.664-2.304.256-1.024.384-2.6667.384-4.928V22.84c0-2.1333-.4906-3.4347-1.472-3.904-.768-.384-1.344-.7467-1.728-1.088-.384-.384-.576-.9173-.576-1.6 0-.8533.2347-1.5147.704-1.984.512-.512 1.2587-1.0027 2.24-1.472 1.4934-.6827 3.2-1.216 5.12-1.6 1.9627-.4267 3.8403-.64 5.6323-.64 1.322 0 2.304.2347 2.944.704.682.4693 1.024 1.3227 1.024 2.56v2.176c0 .5973.106.896.32.896.128 0 .533-.6187 1.216-1.856.725-1.2373 1.834-2.368 3.328-3.392 1.536-1.024 3.605-1.536 6.208-1.536 6.357 0 9.941 3.968 10.752 11.904l.832 8c.17 1.8347.32 3.136.448 3.904.17.768.362 1.3867.576 1.856.256.4267.661.8533 1.216 1.28.469.3413.789.7467.96 1.216.213.4267.32.9813.32 1.664 0 1.0667-.448 1.8773-1.344 2.432-.896.512-2.454.7893-4.672.832-1.494.0427-3.776.064-6.848.064-2.731 0-4.63-.2347-5.696-.704-1.067-.512-1.6-1.344-1.6-2.496 0-.7253.106-1.28.32-1.664.256-.384.618-.7893 1.088-1.216.597-.384 1.024-.832 1.28-1.344.256-.5547.384-1.3653.384-2.432 0-1.024-.086-2.1333-.256-3.328l-.64-5.376c-.171-1.7493-.555-3.008-1.152-3.776-.555-.768-1.366-1.152-2.432-1.152-1.238 0-2.326.6613-3.264 1.984-.896 1.28-1.344 3.1787-1.344 5.696v2.432c0 2.2613.128 3.904.384 4.928s.81 1.8133 1.664 2.368c1.066.7253 1.6 1.6427 1.6 2.752 0 .896-.235 1.5787-.704 2.048-.427.4693-1.216.8107-2.368 1.024-1.152.1707-2.838.256-5.056.256h-4.8003Zm54.1733.448c-3.798 0-6.72-.8747-8.768-2.624-2.048-1.7493-3.072-4.608-3.072-8.576V19.128c0-1.152-.491-1.728-1.472-1.728h-.768c-.683 0-1.216-.2347-1.6-.704-.342-.4693-.512-1.088-.512-1.856 0-1.4507.533-2.88 1.6-4.288l1.088-1.472c1.621-2.176 3.562-4.07467 5.824-5.696 2.389-1.74933 4.629-2.624 6.72-2.624 1.194 0 1.962.256 2.304.768.341.512.512 1.36533.512 2.56v3.136c0 1.19467.021 2.048.064 2.56.085.4693.234.7893.448.96.213.128.576.192 1.088.192h6.08c.81 0 1.386.1493 1.728.448.341.2987.512.9173.512 1.856 0 1.2373-.299 2.24-.896 3.008-.598.7253-1.366 1.088-2.304 1.088h-4.736c-.555 0-1.024.1493-1.408.448-.342.2987-.512.768-.512 1.408V30.2c0 1.28.298 2.2827.896 3.008.597.7253 1.429 1.088 2.496 1.088.554 0 1.173-.1067 1.856-.32.725-.2133 1.386-.5547 1.984-1.024.469-.2987 1.002-.448 1.6-.448.597 0 1.088.2133 1.472.64.384.4267.512 1.0027.384 1.728-.427 2.7307-1.792 4.8853-4.096 6.464-2.262 1.5787-5.099 2.368-8.512 2.368Zm25.337-.256c-2.219 0-3.904-.1067-5.056-.32-1.152-.1707-1.963-.4907-2.432-.96-.47-.4693-.704-1.152-.704-2.048 0-1.152.512-2.0693 1.536-2.752.896-.512 1.45-1.28 1.664-2.304.256-1.024.384-2.6667.384-4.928V22.84c0-2.176-.491-3.4773-1.472-3.904-.768-.4267-1.344-.8107-1.728-1.152-.384-.384-.576-.896-.576-1.536 0-.8533.234-1.5147.704-1.984.512-.512 1.258-1.0027 2.24-1.472 1.45-.6827 3.136-1.216 5.056-1.6 1.962-.4267 3.861-.64 5.696-.64 1.024 0 1.792.192 2.304.576.512.384.768 1.1733.768 2.368v2.112c0 .8533.106 1.28.32 1.28.128 0 .405-.3627.832-1.088.938-1.5787 2.005-2.9227 3.2-4.032 1.194-1.1093 2.794-1.664 4.8-1.664 2.133 0 3.882.7253 5.248 2.176 1.365 1.408 2.048 3.52 2.048 6.336 0 2.176-.576 4.032-1.728 5.568-1.11 1.536-2.603 2.304-4.48 2.304-1.451 0-2.688-.4267-3.712-1.28s-1.536-2.0267-1.536-3.52c0-1.024-.406-1.536-1.216-1.536-.768 0-1.451.7467-2.048 2.24-.555 1.4933-.832 3.2213-.832 5.184v2.496c0 2.2613.128 3.904.384 4.928s.81 1.8133 1.664 2.368c1.066.7253 1.6 1.6427 1.6 2.752 0 .896-.235 1.5787-.704 2.048-.427.4693-1.216.7893-2.368.96-1.152.2133-2.838.32-5.056.32h-4.8ZM212.53 54.2c-2.474 0-4.48-.704-6.016-2.112-1.493-1.408-2.24-3.136-2.24-5.184 0-1.408.47-2.6027 1.408-3.584.939-.9813 2.091-1.472 3.456-1.472 2.518 0 4.246 1.1947 5.184 3.584.128.256.278.5973.448 1.024.214.4693.406.8107.576 1.024.171.256.384.384.64.384.64 0 1.344-.4267 2.112-1.28.299-.2987.448-.6613.448-1.088 0-.384-.128-.96-.384-1.728-.256-.7253-.597-1.5573-1.024-2.496-3.328-7.7227-6.08-14.656-8.256-20.8-.597-1.664-1.344-2.88-2.24-3.648-1.024-.768-1.536-1.7707-1.536-3.008 0-1.152.491-1.9627 1.472-2.432 1.024-.512 2.71-.768 5.056-.768h8.448c2.518 0 4.203.256 5.056.768.896.512 1.344 1.3013 1.344 2.368 0 .5547-.106 1.0027-.32 1.344-.17.3413-.469.8107-.896 1.408-.597.5547-1.045 1.0453-1.344 1.472-.256.384-.384.832-.384 1.344 0 .128.043.3627.128.704 1.024 3.4987 2.176 6.592 3.456 9.28.342.5973.704.896 1.088.896.384 0 .704-.2347.96-.704 1.067-1.9627 1.771-3.4987 2.112-4.608.171-.64.256-1.2587.256-1.856 0-.5973-.106-1.088-.32-1.472-.17-.4267-.448-.896-.832-1.408-.682-.8107-1.216-1.6427-1.6-2.496-.341-.8533-.512-1.792-.512-2.816 0-.768.171-1.4933.512-2.176.384-.6827.939-1.2373 1.664-1.664.854-.5547 1.899-.832 3.136-.832 1.323 0 2.496.3627 3.52 1.088.768.5973 1.387 1.408 1.856 2.432.683 1.3653 1.024 3.0933 1.024 5.184 0 1.28-.298 2.9653-.896 5.056-.597 2.048-1.514 4.3093-2.752 6.784-1.578 3.2-3.584 6.5067-6.016 9.92-3.029 4.1813-6.037 7.488-9.024 9.92-2.944 2.432-5.866 3.648-8.768 3.648ZM97.0255 112.392c-2.176 0-3.8613-.107-5.056-.32-1.152-.213-1.9627-.555-2.432-1.024-.4693-.469-.704-1.131-.704-1.984 0-1.109.512-2.027 1.536-2.752.896-.555 1.472-1.365 1.728-2.432.256-1.024.384-2.645.384-4.864V80.84c0-2.2187-.4907-3.52-1.472-3.904-.8107-.3413-1.408-.704-1.792-1.088-.384-.384-.576-.9173-.576-1.6 0-.8533.256-1.5147.768-1.984.512-.512 1.2587-1.0027 2.24-1.472 1.408-.6827 3.072-1.216 4.992-1.6 1.9627-.4267 3.8615-.64 5.6965-.64 1.365 0 2.368.2347 3.008.704.64.4267.96 1.2587.96 2.496v1.792c0 .9387.149 1.408.447 1.408.129 0 .598-.6187 1.409-1.856.853-1.28 2.069-2.432 3.648-3.456 1.578-1.024 3.52-1.536 5.824-1.536 2.133 0 4.074.576 5.824 1.728 1.792 1.152 3.2 2.8587 4.224 5.12 1.066 2.2613 1.6 4.9707 1.6 8.128 0 3.4987-.704 6.6773-2.112 9.536-1.408 2.8587-3.35 5.0987-5.824 6.72-2.432 1.621-5.163 2.432-8.192 2.432-2.262 0-4.075-.555-5.44-1.664-.512-.4267-.832-.64-.961-.64-.298 0-.447.384-.447 1.152v.448c0 1.195.17 2.219.512 3.072.341.853.96 1.557 1.856 2.112.512.384.896.789 1.152 1.216.298.427.448.96.448 1.6 0 .853-.235 1.515-.704 1.984-.427.469-1.238.811-2.432 1.024-1.195.213-2.944.32-5.248.32h-4.8645ZM111.106 95.24c1.024 0 1.92-.512 2.688-1.536.768-1.0667 1.152-2.624 1.152-4.672 0-3.1573-.427-5.888-1.28-8.192-.811-2.3467-2.048-3.52-3.712-3.52-1.152 0-2.048.5333-2.688 1.6-.64 1.024-.96 2.6027-.96 4.736v1.664c0 3.4133.426 5.9307 1.28 7.552.896 1.5787 2.069 2.368 3.52 2.368Zm33.928 6.528c-4.011 0-6.891-.939-8.64-2.816-1.749-1.8773-2.624-4.1813-2.624-6.912 0-3.1147 1.365-5.5467 4.096-7.296 2.773-1.7493 6.379-2.816 10.816-3.2 2.005-.1707 3.349-.384 4.032-.64.683-.256.96-.832.832-1.728l-.064-.768c-.171-1.3227-.512-2.304-1.024-2.944-.512-.64-1.301-.96-2.368-.96-1.835 0-3.093.96-3.776 2.88-.512 1.28-1.237 2.24-2.176 2.88-.939.64-2.197.96-3.776.96-1.024 0-1.984-.384-2.88-1.152-.853-.8107-1.28-1.8133-1.28-3.008 0-1.792.768-3.3493 2.304-4.672 1.579-1.3653 3.648-2.4107 6.208-3.136 2.56-.768 5.291-1.152 8.192-1.152 3.499 0 6.251.512 8.256 1.536 2.048.9813 3.52 2.368 4.416 4.16.896 1.7493 1.493 3.9253 1.792 6.528l1.216 9.92c.085.8107.235 1.3867.448 1.728.213.3413.512.5547.896.64.256.0853.576.1493.96.192.427.0427.747.1067.96.192.725.3413 1.088 1.0027 1.088 1.984 0 1.1093-.341 2.176-1.024 3.2-.64.9813-1.579 1.792-2.816 2.432-1.195.597-2.581.896-4.16.896-3.627 0-6.059-1.365-7.296-4.096-.341-.6827-.619-1.024-.832-1.024-.171 0-.661.4907-1.472 1.472-.768.9813-1.984 1.8773-3.648 2.688-1.621.811-3.84 1.216-6.656 1.216Zm6.528-7.104c.939 0 1.728-.384 2.368-1.152.683-.8107 1.024-1.8773 1.024-3.2 0-.4267-.021-.768-.064-1.024l-.256-1.6c-.085-.8533-.363-1.4507-.832-1.792-.427-.3413-1.131-.512-2.112-.512-2.645 0-3.968 1.5147-3.968 4.544 0 1.536.363 2.7093 1.088 3.52.768.8107 1.685 1.216 2.752 1.216Zm33.225 6.784c-2.219 0-3.904-.107-5.056-.32-1.152-.171-1.963-.491-2.432-.96-.469-.4693-.704-1.152-.704-2.048 0-1.152.512-2.0693 1.536-2.752.853-.512 1.408-1.28 1.664-2.304.256-1.0667.384-2.7093.384-4.928V68.104c0-2.176-.491-3.4773-1.472-3.904-.811-.3413-1.408-.704-1.792-1.088-.384-.384-.576-.9173-.576-1.6 0-.8533.256-1.5147.768-1.984.512-.512 1.259-1.0027 2.24-1.472 1.408-.6827 3.072-1.216 4.992-1.6 1.963-.4267 3.861-.64 5.696-.64 1.365 0 2.368.2347 3.008.704.683.4693 1.024 1.3227 1.024 2.56v28.992c0 2.2613.128 3.904.384 4.928s.811 1.8133 1.664 2.368c1.067.7253 1.6 1.6427 1.6 2.752 0 .896-.235 1.5787-.704 2.048-.427.469-1.216.789-2.368.96-1.152.213-2.837.32-5.056.32h-4.8Z"/><path stroke="#598B8B" stroke-linecap="round" stroke-linejoin="round" stroke-width="3" d="m76.0001 103.842-7.4644-7.372c-1.159-1.1447-2.7353-1.7858-4.3735-1.7858h-2.0708l-3.0908 1.5263H52.819c-1.7 0-3.0909 1.3737-3.0909 3.0527v3.0528"/><path stroke="#598B8B" stroke-linecap="round" stroke-linejoin="round" stroke-width="3" d="m66.7276 113-3.0908-3.053H45.0919L31.1832 96.2105l2.4263-.5952c2.3645-.58 4.8835-.0458 6.7844 1.4652l6.2434 5.2355h12.3632"/><path stroke="#DE5E49" stroke-linecap="round" stroke-linejoin="round" stroke-width="3" d="m51.5826 85.5264-.3091 1.5263-3.0908 3.0526h-3.0908l-3.0908-3.0526-3.0908 3.0526h-3.0909l-3.0908-3.0526L30.1169 74.14c-.3091-1.511 0-3.0678.8654-4.35 1.0818-1.6178 2.9208-2.5794 4.8835-2.5794h12.3169M42.0011 67.2105l-3.0908-6.1053"/><path stroke="#F08E40" stroke-linecap="round" stroke-linejoin="round" stroke-width="3" d="M59.5877 67.1342c.51-3.1595-1.9781-6.029-5.2234-6.029-3.2454 0-5.718 2.8695-5.2235 6.029l3.4308 21.46c.1391.87.8963 1.511 1.7927 1.511.8963 0 1.6536-.641 1.7926-1.511l3.4308-21.46Z"/><path stroke="#F08E40" stroke-linecap="round" stroke-linejoin="round" stroke-width="2" d="m52.8188 56.5263 1.5455 4.579L57.4551 55"/></svg>