<svg xmlns="http://www.w3.org/2000/svg" width="569" height="363" fill="none">
  <path fill="#FFF6F4" d="M0 0h569v363H0z"/>
  <path fill="#DE5E49" d="M73.6355 200.392c-2.176 0-3.8613-.107-5.056-.32-1.152-.213-1.9627-.555-2.432-1.024-.4693-.469-.704-1.131-.704-1.984 0-1.109.512-2.027 1.536-2.752.896-.555 1.472-1.365 1.728-2.432.256-1.024.384-2.645.384-4.864V168.84c0-2.219-.4907-3.52-1.472-3.904-.8107-.341-1.408-.704-1.792-1.088-.384-.384-.576-.917-.576-1.6 0-.853.256-1.515.768-1.984.512-.512 1.2587-1.003 2.24-1.472 1.408-.683 3.072-1.216 4.992-1.6 1.9627-.427 3.8613-.64 5.696-.64 1.3653 0 2.368.235 3.008.704.64.427.96 1.259.96 2.496v1.792c0 .939.1493 1.408.448 1.408.128 0 .5973-.619 1.408-1.856.8533-1.28 2.0693-2.432 3.648-3.456s3.52-1.536 5.824-1.536c2.1333 0 4.0747.576 5.8245 1.728 1.792 1.152 3.2 2.859 4.224 5.12 1.066 2.261 1.6 4.971 1.6 8.128 0 3.499-.704 6.677-2.112 9.536-1.408 2.859-3.35 5.099-5.8245 6.72-2.432 1.621-5.1627 2.432-8.192 2.432-2.2613 0-4.0747-.555-5.44-1.664-.512-.427-.832-.64-.96-.64-.2987 0-.448.384-.448 1.152v.448c0 1.195.1707 2.219.512 3.072.3413.853.96 1.557 1.856 2.112.512.384.896.789 1.152 1.216.2987.427.448.96.448 1.6 0 .853-.2347 1.515-.704 1.984-.4267.469-1.2373.811-2.432 1.024-1.1947.213-2.944.32-5.248.32h-4.864Zm14.08-17.152c1.024 0 1.92-.512 2.688-1.536.768-1.067 1.152-2.624 1.152-4.672 0-3.157-.4267-5.888-1.28-8.192-.8107-2.347-2.048-3.52-3.712-3.52-1.152 0-2.048.533-2.688 1.6-.64 1.024-.96 2.603-.96 4.736v1.664c0 3.413.4267 5.931 1.28 7.552.896 1.579 2.0693 2.368 3.52 2.368Zm35.5285 6.528c-4.011 0-6.891-.939-8.64-2.816-1.749-1.877-2.624-4.181-2.624-6.912 0-3.115 1.365-5.547 4.096-7.296 2.773-1.749 6.379-2.816 10.816-3.2 2.005-.171 3.349-.384 4.032-.64.683-.256.96-.832.832-1.728l-.064-.768c-.171-1.323-.512-2.304-1.024-2.944-.512-.64-1.301-.96-2.368-.96-1.835 0-3.093.96-3.776 2.88-.512 1.28-1.237 2.24-2.176 2.88-.939.64-2.197.96-3.776.96-1.024 0-1.984-.384-2.88-1.152-.853-.811-1.28-1.813-1.28-3.008 0-1.792.768-3.349 2.304-4.672 1.579-1.365 3.648-2.411 6.208-3.136 2.56-.768 5.291-1.152 8.192-1.152 3.499 0 6.251.512 8.256 1.536 2.048.981 3.52 2.368 4.416 4.16.896 1.749 1.493 3.925 1.792 6.528l1.216 9.92c.085.811.235 1.387.448 1.728.213.341.512.555.896.64.256.085.576.149.96.192.427.043.747.107.96.192.725.341 1.088 1.003 1.088 1.984 0 1.109-.341 2.176-1.024 3.2-.64.981-1.579 1.792-2.816 2.432-1.195.597-2.581.896-4.16.896-3.627 0-6.059-1.365-7.296-4.096-.341-.683-.619-1.024-.832-1.024-.171 0-.661.491-1.472 1.472-.768.981-1.984 1.877-3.648 2.688-1.621.811-3.84 1.216-6.656 1.216Zm6.528-7.104c.939 0 1.728-.384 2.368-1.152.683-.811 1.024-1.877 1.024-3.2 0-.427-.021-.768-.064-1.024l-.256-1.6c-.085-.853-.363-1.451-.832-1.792-.427-.341-1.131-.512-2.112-.512-2.645 0-3.968 1.515-3.968 4.544 0 1.536.363 2.709 1.088 3.52.768.811 1.685 1.216 2.752 1.216Zm35.575 6.592c-2.219 0-3.904-.085-5.056-.256-1.152-.213-1.963-.555-2.432-1.024-.469-.469-.704-1.152-.704-2.048 0-1.152.512-2.069 1.536-2.752.896-.512 1.451-1.28 1.664-2.304.256-1.024.384-2.667.384-4.928v-7.104c0-2.133-.491-3.435-1.472-3.904-.768-.384-1.344-.747-1.728-1.088-.384-.384-.576-.917-.576-1.6 0-.853.235-1.515.704-1.984.512-.512 1.259-1.003 2.24-1.472 1.493-.683 3.2-1.216 5.12-1.6 1.963-.427 3.84-.64 5.632-.64 1.323 0 2.304.235 2.944.704.683.469 1.024 1.323 1.024 2.56v2.176c0 .597.107.896.32.896.128 0 .533-.619 1.216-1.856.725-1.237 1.835-2.368 3.328-3.392 1.536-1.024 3.605-1.536 6.208-1.536 6.357 0 9.941 3.968 10.752 11.904l.832 8c.171 1.835.32 3.136.448 3.904.171.768.363 1.387.576 1.856.256.427.661.853 1.216 1.28.469.341.789.747.96 1.216.213.427.32.981.32 1.664 0 1.067-.448 1.877-1.344 2.432-.896.512-2.453.789-4.672.832-1.493.043-3.776.064-6.848.064-2.731 0-4.629-.235-5.696-.704-1.067-.512-1.6-1.344-1.6-2.496 0-.725.107-1.28.32-1.664.256-.384.619-.789 1.088-1.216.597-.384 1.024-.832 1.28-1.344.256-.555.384-1.365.384-2.432 0-1.024-.085-2.133-.256-3.328l-.64-5.376c-.171-1.749-.555-3.008-1.152-3.776-.555-.768-1.365-1.152-2.432-1.152-1.237 0-2.325.661-3.264 1.984-.896 1.28-1.344 3.179-1.344 5.696v2.432c0 2.261.128 3.904.384 4.928s.811 1.813 1.664 2.368c1.067.725 1.6 1.643 1.6 2.752 0 .896-.235 1.579-.704 2.048-.427.469-1.216.811-2.368 1.024-1.152.171-2.837.256-5.056.256h-4.8Zm55.773.448c-3.797 0-6.72-.875-8.768-2.624-2.048-1.749-3.072-4.608-3.072-8.576v-13.376c0-1.152-.491-1.728-1.472-1.728h-.768c-.683 0-1.216-.235-1.6-.704-.341-.469-.512-1.088-.512-1.856 0-1.451.533-2.88 1.6-4.288l1.088-1.472c1.621-2.176 3.563-4.075 5.824-5.696 2.389-1.749 4.629-2.624 6.72-2.624 1.195 0 1.963.256 2.304.768.341.512.512 1.365.512 2.56v3.136c0 1.195.021 2.048.064 2.56.085.469.235.789.448.96.213.128.576.192 1.088.192h6.08c.811 0 1.387.149 1.728.448.341.299.512.917.512 1.856 0 1.237-.299 2.24-.896 3.008-.597.725-1.365 1.088-2.304 1.088h-4.736c-.555 0-1.024.149-1.408.448-.341.299-.512.768-.512 1.408V176.2c0 1.28.299 2.283.896 3.008.597.725 1.429 1.088 2.496 1.088.555 0 1.173-.107 1.856-.32.725-.213 1.387-.555 1.984-1.024.469-.299 1.003-.448 1.6-.448.597 0 1.088.213 1.472.64.384.427.512 1.003.384 1.728-.427 2.731-1.792 4.885-4.096 6.464-2.261 1.579-5.099 2.368-8.512 2.368Zm26.937-.256c-2.219 0-3.904-.107-5.056-.32-1.152-.171-1.963-.491-2.432-.96-.469-.469-.704-1.152-.704-2.048 0-1.152.512-2.069 1.536-2.752.896-.512 1.451-1.28 1.664-2.304.256-1.024.384-2.667.384-4.928v-7.296c0-2.176-.491-3.477-1.472-3.904-.768-.427-1.344-.811-1.728-1.152-.384-.384-.576-.896-.576-1.536 0-.853.235-1.515.704-1.984.512-.512 1.259-1.003 2.24-1.472 1.451-.683 3.136-1.216 5.056-1.6 1.963-.427 3.861-.64 5.696-.64 1.024 0 1.792.192 2.304.576.512.384.768 1.173.768 2.368v2.112c0 .853.107 1.28.32 1.28.128 0 .405-.363.832-1.088.939-1.579 2.005-2.923 3.2-4.032 1.195-1.109 2.795-1.664 4.8-1.664 2.133 0 3.883.725 5.248 2.176 1.365 1.408 2.048 3.52 2.048 6.336 0 2.176-.576 4.032-1.728 5.568-1.109 1.536-2.603 2.304-4.48 2.304-1.451 0-2.688-.427-3.712-1.28s-1.536-2.027-1.536-3.52c0-1.024-.405-1.536-1.216-1.536-.768 0-1.451.747-2.048 2.24-.555 1.493-.832 3.221-.832 5.184v2.496c0 2.261.128 3.904.384 4.928s.811 1.813 1.664 2.368c1.067.725 1.6 1.643 1.6 2.752 0 .896-.235 1.579-.704 2.048-.427.469-1.216.789-2.368.96-1.152.213-2.837.32-5.056.32h-4.8Zm36.939 10.752c-2.474 0-4.48-.704-6.016-2.112-1.493-1.408-2.24-3.136-2.24-5.184 0-1.408.47-2.603 1.408-3.584.939-.981 2.091-1.472 3.456-1.472 2.518 0 4.246 1.195 5.184 3.584.128.256.278.597.448 1.024.214.469.406.811.576 1.024.171.256.384.384.64.384.64 0 1.344-.427 2.112-1.28.299-.299.448-.661.448-1.088 0-.384-.128-.96-.384-1.728-.256-.725-.597-1.557-1.024-2.496-3.328-7.723-6.08-14.656-8.256-20.8-.597-1.664-1.344-2.88-2.24-3.648-1.024-.768-1.536-1.771-1.536-3.008 0-1.152.491-1.963 1.472-2.432 1.024-.512 2.71-.768 5.056-.768h8.448c2.518 0 4.203.256 5.056.768.896.512 1.344 1.301 1.344 2.368 0 .555-.106 1.003-.32 1.344-.17.341-.469.811-.896 1.408-.597.555-1.045 1.045-1.344 1.472-.256.384-.384.832-.384 1.344 0 .128.043.363.128.704 1.024 3.499 2.176 6.592 3.456 9.28.342.597.704.896 1.088.896.384 0 .704-.235.96-.704 1.067-1.963 1.771-3.499 2.112-4.608.171-.64.256-1.259.256-1.856 0-.597-.106-1.088-.32-1.472-.17-.427-.448-.896-.832-1.408-.682-.811-1.216-1.643-1.6-2.496-.341-.853-.512-1.792-.512-2.816 0-.768.171-1.493.512-2.176.384-.683.939-1.237 1.664-1.664.854-.555 1.899-.832 3.136-.832 1.323 0 2.496.363 3.52 1.088.768.597 1.387 1.408 1.856 2.432.683 1.365 1.024 3.093 1.024 5.184 0 1.28-.298 2.965-.896 5.056-.597 2.048-1.514 4.309-2.752 6.784-1.578 3.2-3.584 6.507-6.016 9.92-3.029 4.181-6.037 7.488-9.024 9.92-2.944 2.432-5.866 3.648-8.768 3.648Zm114.834.192c-2.176 0-3.861-.107-5.056-.32-1.152-.213-1.962-.555-2.432-1.024-.469-.469-.704-1.131-.704-1.984 0-1.109.512-2.027 1.536-2.752.896-.555 1.472-1.365 1.728-2.432.256-1.024.384-2.645.384-4.864V168.84c0-2.219-.49-3.52-1.472-3.904-.81-.341-1.408-.704-1.792-1.088-.384-.384-.576-.917-.576-1.6 0-.853.256-1.515.768-1.984.512-.512 1.259-1.003 2.24-1.472 1.408-.683 3.072-1.216 4.992-1.6 1.963-.427 3.862-.64 5.696-.64 1.366 0 2.368.235 3.008.704.64.427.96 1.259.96 2.496v1.792c0 .939.15 1.408.448 1.408.128 0 .598-.619 1.408-1.856.854-1.28 2.07-2.432 3.648-3.456 1.579-1.024 3.52-1.536 5.824-1.536 2.134 0 4.075.576 5.824 1.728 1.792 1.152 3.2 2.859 4.224 5.12 1.067 2.261 1.6 4.971 1.6 8.128 0 3.499-.704 6.677-2.112 9.536-1.408 2.859-3.349 5.099-5.824 6.72-2.432 1.621-5.162 2.432-8.192 2.432-2.261 0-4.074-.555-5.44-1.664-.512-.427-.832-.64-.96-.64-.298 0-.448.384-.448 1.152v.448c0 1.195.171 2.219.512 3.072.342.853.96 1.557 1.856 2.112.512.384.896.789 1.152 1.216.299.427.448.96.448 1.6 0 .853-.234 1.515-.704 1.984-.426.469-1.237.811-2.432 1.024-1.194.213-2.944.32-5.248.32h-4.864Zm14.08-17.152c1.024 0 1.92-.512 2.688-1.536.768-1.067 1.152-2.624 1.152-4.672 0-3.157-.426-5.888-1.28-8.192-.81-2.347-2.048-3.52-3.712-3.52-1.152 0-2.048.533-2.688 1.6-.64 1.024-.96 2.603-.96 4.736v1.664c0 3.413.427 5.931 1.28 7.552.896 1.579 2.07 2.368 3.52 2.368Zm35.529 6.528c-4.011 0-6.891-.939-8.64-2.816-1.749-1.877-2.624-4.181-2.624-6.912 0-3.115 1.365-5.547 4.096-7.296 2.773-1.749 6.379-2.816 10.816-3.2 2.005-.171 3.349-.384 4.032-.64.683-.256.96-.832.832-1.728l-.064-.768c-.171-1.323-.512-2.304-1.024-2.944-.512-.64-1.301-.96-2.368-.96-1.835 0-3.093.96-3.776 2.88-.512 1.28-1.237 2.24-2.176 2.88-.939.64-2.197.96-3.776.96-1.024 0-1.984-.384-2.88-1.152-.853-.811-1.28-1.813-1.28-3.008 0-1.792.768-3.349 2.304-4.672 1.579-1.365 3.648-2.411 6.208-3.136 2.56-.768 5.291-1.152 8.192-1.152 3.499 0 6.251.512 8.256 1.536 2.048.981 3.52 2.368 4.416 4.16.896 1.749 1.493 3.925 1.792 6.528l1.216 9.92c.085.811.235 1.387.448 1.728.213.341.512.555.896.64.256.085.576.149.96.192.427.043.747.107.96.192.725.341 1.088 1.003 1.088 1.984 0 1.109-.341 2.176-1.024 3.2-.64.981-1.579 1.792-2.816 2.432-1.195.597-2.581.896-4.16.896-3.627 0-6.059-1.365-7.296-4.096-.341-.683-.619-1.024-.832-1.024-.171 0-.661.491-1.472 1.472-.768.981-1.984 1.877-3.648 2.688-1.621.811-3.84 1.216-6.656 1.216Zm6.528-7.104c.939 0 1.728-.384 2.368-1.152.683-.811 1.024-1.877 1.024-3.2 0-.427-.021-.768-.064-1.024l-.256-1.6c-.085-.853-.363-1.451-.832-1.792-.427-.341-1.131-.512-2.112-.512-2.645 0-3.968 1.515-3.968 4.544 0 1.536.363 2.709 1.088 3.52.768.811 1.685 1.216 2.752 1.216Zm34.825 6.784c-2.219 0-3.904-.107-5.056-.32-1.152-.171-1.963-.491-2.432-.96-.469-.469-.704-1.152-.704-2.048 0-1.152.512-2.069 1.536-2.752.853-.512 1.408-1.28 1.664-2.304.256-1.067.384-2.709.384-4.928v-20.032c0-2.176-.491-3.477-1.472-3.904-.811-.341-1.408-.704-1.792-1.088-.384-.384-.576-.917-.576-1.6 0-.853.256-1.515.768-1.984.512-.512 1.259-1.003 2.24-1.472 1.408-.683 3.072-1.216 4.992-1.6 1.963-.427 3.861-.64 5.696-.64 1.365 0 2.368.235 3.008.704.683.469 1.024 1.323 1.024 2.56v28.992c0 2.261.128 3.904.384 4.928s.811 1.813 1.664 2.368c1.067.725 1.6 1.643 1.6 2.752 0 .896-.235 1.579-.704 2.048-.427.469-1.216.789-2.368.96-1.152.213-2.837.32-5.056.32h-4.8Z"/>
  <path stroke="#598B8B" stroke-linecap="round" stroke-linejoin="round" stroke-width="3" d="m378 185.684-7.627-7.499c-1.184-1.164-2.794-1.817-4.468-1.817h-2.116l-3.158 1.553h-6.316c-1.737 0-3.158 1.397-3.158 3.105v3.106"/>
  <path stroke="#598B8B" stroke-linecap="round" stroke-linejoin="round" stroke-width="3" d="m368.526 195-3.158-3.105H346.42l-14.211-13.974 2.479-.605c2.416-.59 4.99-.047 6.932 1.49l6.379 5.326h12.632"/>
  <path stroke="#DE5E49" stroke-linecap="round" stroke-linejoin="round" stroke-width="3" d="m353.052 167.053-.316 1.552-3.158 3.105h-3.158l-3.158-3.105-3.158 3.105h-3.158l-3.158-3.105-2.669-13.135c-.315-1.537 0-3.121.885-4.425 1.105-1.646 2.984-2.624 4.989-2.624h12.585M343.262 148.421l-3.158-6.21"/>
  <path stroke="#F08E40" stroke-linecap="round" stroke-linejoin="round" stroke-width="3" d="M361.231 148.343c.521-3.213-2.021-6.132-5.337-6.132s-5.842 2.919-5.337 6.132l3.505 21.83c.142.885.916 1.538 1.832 1.538s1.69-.653 1.832-1.538l3.505-21.83Z"/>
  <path stroke="#F08E40" stroke-linecap="round" stroke-linejoin="round" stroke-width="2" d="m354.315 137.553 1.579 4.658 3.158-6.211"/>
</svg>
