<svg xmlns="http://www.w3.org/2000/svg" width="439" height="66" fill="none">
  <path fill="#DE5E49" d="M8.6355 65.392c-2.176 0-3.86133-.1067-5.056-.32-1.152-.2133-1.96267-.5547-2.432-1.024-.46933-.4693-.704-1.1307-.704-1.984 0-1.1093.512-2.0267 1.536-2.752.896-.5547 1.472-1.3653 1.728-2.432.256-1.024.384-2.6453.384-4.864V33.84c0-2.2187-.49067-3.52-1.472-3.904-.81067-.3413-1.408-.704-1.792-1.088-.384-.384-.576-.9173-.576-1.6 0-.8533.256-1.5147.768-1.984.512-.512 1.25867-1.0027 2.24-1.472 1.408-.6827 3.072-1.216 4.992-1.6 1.9627-.4267 3.8613-.64 5.696-.64 1.3653 0 2.368.2347 3.008.704.64.4267.96 1.2587.96 2.496v1.792c0 .9387.1493 1.408.448 1.408.128 0 .5973-.6187 1.408-1.856.8533-1.28 2.0693-2.432 3.648-3.456s3.52-1.536 5.824-1.536c2.1333 0 4.0747.576 5.824 1.728 1.792 1.152 3.2 2.8587 4.224 5.12 1.0667 2.2613 1.6 4.9707 1.6 8.128 0 3.4987-.704 6.6773-2.112 9.536-1.408 2.8587-3.3493 5.0987-5.824 6.72-2.432 1.6213-5.1627 2.432-8.192 2.432-2.2613 0-4.0747-.5547-5.44-1.664-.512-.4267-.832-.64-.96-.64-.2987 0-.448.384-.448 1.152v.448c0 1.1947.1707 2.2187.512 3.072.3413.8533.96 1.5573 1.856 2.112.512.384.896.7893 1.152 1.216.2987.4267.448.96.448 1.6 0 .8533-.2347 1.5147-.704 1.984-.4267.4693-1.2373.8107-2.432 1.024-1.1947.2133-2.944.32-5.248.32h-4.864Zm14.08-17.152c1.024 0 1.92-.512 2.688-1.536.768-1.0667 1.152-2.624 1.152-4.672 0-3.1573-.4267-5.888-1.28-8.192-.8107-2.3467-2.048-3.52-3.712-3.52-1.152 0-2.048.5333-2.688 1.6-.64 1.024-.96 2.6027-.96 4.736v1.664c0 3.4133.4267 5.9307 1.28 7.552.896 1.5787 2.0693 2.368 3.52 2.368Zm35.5285 6.528c-4.0107 0-6.8907-.9387-8.64-2.816-1.7493-1.8773-2.624-4.1813-2.624-6.912 0-3.1147 1.3653-5.5467 4.096-7.296 2.7733-1.7493 6.3787-2.816 10.816-3.2 2.0053-.1707 3.3493-.384 4.032-.64.6827-.256.96-.832.832-1.728l-.064-.768c-.1707-1.3227-.512-2.304-1.024-2.944-.512-.64-1.3013-.96-2.368-.96-1.8347 0-3.0933.96-3.776 2.88-.512 1.28-1.2373 2.24-2.176 2.88-.9387.64-2.1973.96-3.776.96-1.024 0-1.984-.384-2.88-1.152-.8533-.8107-1.28-1.8133-1.28-3.008 0-1.792.768-3.3493 2.304-4.672 1.5787-1.3653 3.648-2.4107 6.208-3.136 2.56-.768 5.2907-1.152 8.192-1.152 3.4987 0 6.2507.512 8.256 1.536 2.048.9813 3.52 2.368 4.416 4.16.896 1.7493 1.4933 3.9253 1.792 6.528l1.216 9.92c.0853.8107.2347 1.3867.448 1.728.2133.3413.512.5547.896.64.256.0853.576.1493.96.192.4267.0427.7467.1067.96.192.7253.3413 1.088 1.0027 1.088 1.984 0 1.1093-.3413 2.176-1.024 3.2-.64.9813-1.5787 1.792-2.816 2.432-1.1947.5973-2.5813.896-4.16.896-3.6267 0-6.0587-1.3653-7.296-4.096-.3413-.6827-.6187-1.024-.832-1.024-.1707 0-.6613.4907-1.472 1.472-.768.9813-1.984 1.8773-3.648 2.688-1.6213.8107-3.84 1.216-6.656 1.216Zm6.528-7.104c.9387 0 1.728-.384 2.368-1.152.6827-.8107 1.024-1.8773 1.024-3.2 0-.4267-.0213-.768-.064-1.024l-.256-1.6c-.0853-.8533-.3627-1.4507-.832-1.792-.4267-.3413-1.1307-.512-2.112-.512-2.6453 0-3.968 1.5147-3.968 4.544 0 1.536.3627 2.7093 1.088 3.52.768.8107 1.6853 1.216 2.752 1.216Zm35.575 6.592c-2.2187 0-3.904-.0853-5.056-.256-1.152-.2133-1.9627-.5547-2.432-1.024-.4693-.4693-.704-1.152-.704-2.048 0-1.152.512-2.0693 1.536-2.752.896-.512 1.4507-1.28 1.664-2.304.256-1.024.384-2.6667.384-4.928V33.84c0-2.1333-.4907-3.4347-1.472-3.904-.768-.384-1.344-.7467-1.728-1.088-.384-.384-.576-.9173-.576-1.6 0-.8533.2347-1.5147.704-1.984.512-.512 1.2587-1.0027 2.24-1.472 1.4933-.6827 3.2-1.216 5.12-1.6 1.963-.4267 3.84-.64 5.632-.64 1.323 0 2.304.2347 2.944.704.683.4693 1.024 1.3227 1.024 2.56v2.176c0 .5973.107.896.32.896.128 0 .533-.6187 1.216-1.856.725-1.2373 1.835-2.368 3.328-3.392 1.536-1.024 3.605-1.536 6.208-1.536 6.357 0 9.941 3.968 10.752 11.904l.832 8c.171 1.8347.32 3.136.448 3.904.171.768.363 1.3867.576 1.856.256.4267.661.8533 1.216 1.28.469.3413.789.7467.96 1.216.213.4267.32.9813.32 1.664 0 1.0667-.448 1.8773-1.344 2.432-.896.512-2.453.7893-4.672.832-1.493.0427-3.776.064-6.848.064-2.731 0-4.629-.2347-5.696-.704-1.067-.512-1.6-1.344-1.6-2.496 0-.7253.107-1.28.32-1.664.256-.384.619-.7893 1.088-1.216.597-.384 1.024-.832 1.28-1.344.256-.5547.384-1.3653.384-2.432 0-1.024-.085-2.1333-.256-3.328l-.64-5.376c-.171-1.7493-.555-3.008-1.152-3.776-.555-.768-1.365-1.152-2.432-1.152-1.237 0-2.325.6613-3.264 1.984-.896 1.28-1.344 3.1787-1.344 5.696v2.432c0 2.2613.128 3.904.384 4.928s.811 1.8133 1.664 2.368c1.067.7253 1.6 1.6427 1.6 2.752 0 .896-.235 1.5787-.704 2.048-.427.4693-1.216.8107-2.368 1.024-1.152.1707-2.837.256-5.056.256h-4.8Zm55.773.448c-3.797 0-6.72-.8747-8.768-2.624-2.048-1.7493-3.072-4.608-3.072-8.576V30.128c0-1.152-.491-1.728-1.472-1.728h-.768c-.683 0-1.216-.2347-1.6-.704-.341-.4693-.512-1.088-.512-1.856 0-1.4507.533-2.88 1.6-4.288l1.088-1.472c1.621-2.176 3.563-4.0747 5.824-5.696 2.389-1.7493 4.629-2.624 6.72-2.624 1.195 0 1.963.256 2.304.768.341.512.512 1.3653.512 2.56v3.136c0 1.1947.021 2.048.064 2.56.085.4693.235.7893.448.96.213.128.576.192 1.088.192h6.08c.811 0 1.387.1493 1.728.448.341.2987.512.9173.512 1.856 0 1.2373-.299 2.24-.896 3.008-.597.7253-1.365 1.088-2.304 1.088h-4.736c-.555 0-1.024.1493-1.408.448-.341.2987-.512.768-.512 1.408V41.2c0 1.28.299 2.2827.896 3.008.597.7253 1.429 1.088 2.496 1.088.555 0 1.173-.1067 1.856-.32.725-.2133 1.387-.5547 1.984-1.024.469-.2987 1.003-.448 1.6-.448.597 0 1.088.2133 1.472.64.384.4267.512 1.0027.384 1.728-.427 2.7307-1.792 4.8853-4.096 6.464-2.261 1.5787-5.099 2.368-8.512 2.368Zm26.937-.256c-2.219 0-3.904-.1067-5.056-.32-1.152-.1707-1.963-.4907-2.432-.96-.469-.4693-.704-1.152-.704-2.048 0-1.152.512-2.0693 1.536-2.752.896-.512 1.451-1.28 1.664-2.304.256-1.024.384-2.6667.384-4.928V33.84c0-2.176-.491-3.4773-1.472-3.904-.768-.4267-1.344-.8107-1.728-1.152-.384-.384-.576-.896-.576-1.536 0-.8533.235-1.5147.704-1.984.512-.512 1.259-1.0027 2.24-1.472 1.451-.6827 3.136-1.216 5.056-1.6 1.963-.4267 3.861-.64 5.696-.64 1.024 0 1.792.192 2.304.576.512.384.768 1.1733.768 2.368v2.112c0 .8533.107 1.28.32 1.28.128 0 .405-.3627.832-1.088.939-1.5787 2.005-2.9227 3.2-4.032 1.195-1.1093 2.795-1.664 4.8-1.664 2.133 0 3.883.7253 5.248 2.176 1.365 1.408 2.048 3.52 2.048 6.336 0 2.176-.576 4.032-1.728 5.568-1.109 1.536-2.603 2.304-4.48 2.304-1.451 0-2.688-.4267-3.712-1.28s-1.536-2.0267-1.536-3.52c0-1.024-.405-1.536-1.216-1.536-.768 0-1.451.7467-2.048 2.24-.555 1.4933-.832 3.2213-.832 5.184v2.496c0 2.2613.128 3.904.384 4.928s.811 1.8133 1.664 2.368c1.067.7253 1.6 1.6427 1.6 2.752 0 .896-.235 1.5787-.704 2.048-.427.4693-1.216.7893-2.368.96-1.152.2133-2.837.32-5.056.32h-4.8ZM219.996 65.2c-2.474 0-4.48-.704-6.016-2.112-1.493-1.408-2.24-3.136-2.24-5.184 0-1.408.47-2.6027 1.408-3.584.939-.9813 2.091-1.472 3.456-1.472 2.518 0 4.246 1.1947 5.184 3.584.128.256.278.5973.448 1.024.214.4693.406.8107.576 1.024.171.256.384.384.64.384.64 0 1.344-.4267 2.112-1.28.299-.2987.448-.6613.448-1.088 0-.384-.128-.96-.384-1.728-.256-.7253-.597-1.5573-1.024-2.496-3.328-7.7227-6.08-14.656-8.256-20.8-.597-1.664-1.344-2.88-2.24-3.648-1.024-.768-1.536-1.7707-1.536-3.008 0-1.152.491-1.9627 1.472-2.432 1.024-.512 2.71-.768 5.056-.768h8.448c2.518 0 4.203.256 5.056.768.896.512 1.344 1.3013 1.344 2.368 0 .5547-.106 1.0027-.32 1.344-.17.3413-.469.8107-.896 1.408-.597.5547-1.045 1.0453-1.344 1.472-.256.384-.384.832-.384 1.344 0 .128.043.3627.128.704 1.024 3.4987 2.176 6.592 3.456 9.28.342.5973.704.896 1.088.896.384 0 .704-.2347.96-.704 1.067-1.9627 1.771-3.4987 2.112-4.608.171-.64.256-1.2587.256-1.856 0-.5973-.106-1.088-.32-1.472-.17-.4267-.448-.896-.832-1.408-.682-.8107-1.216-1.6427-1.6-2.496-.341-.8533-.512-1.792-.512-2.816 0-.768.171-1.4933.512-2.176.384-.6827.939-1.2373 1.664-1.664.854-.5547 1.899-.832 3.136-.832 1.323 0 2.496.3627 3.52 1.088.768.5973 1.387 1.408 1.856 2.432.683 1.3653 1.024 3.0933 1.024 5.184 0 1.28-.298 2.9653-.896 5.056-.597 2.048-1.514 4.3093-2.752 6.784-1.578 3.2-3.584 6.5067-6.016 9.92-3.029 4.1813-6.037 7.488-9.024 9.92-2.944 2.432-5.866 3.648-8.768 3.648Zm114.834.192c-2.176 0-3.861-.1067-5.056-.32-1.152-.2133-1.962-.5547-2.432-1.024-.469-.4693-.704-1.1307-.704-1.984 0-1.1093.512-2.0267 1.536-2.752.896-.5547 1.472-1.3653 1.728-2.432.256-1.024.384-2.6453.384-4.864V33.84c0-2.2187-.49-3.52-1.472-3.904-.81-.3413-1.408-.704-1.792-1.088-.384-.384-.576-.9173-.576-1.6 0-.8533.256-1.5147.768-1.984.512-.512 1.259-1.0027 2.24-1.472 1.408-.6827 3.072-1.216 4.992-1.6 1.963-.4267 3.862-.64 5.696-.64 1.366 0 2.368.2347 3.008.704.64.4267.96 1.2587.96 2.496v1.792c0 .9387.15 1.408.448 1.408.128 0 .598-.6187 1.408-1.856.854-1.28 2.07-2.432 3.648-3.456 1.579-1.024 3.52-1.536 5.824-1.536 2.134 0 4.075.576 5.824 1.728 1.792 1.152 3.2 2.8587 4.224 5.12 1.067 2.2613 1.6 4.9707 1.6 8.128 0 3.4987-.704 6.6773-2.112 9.536-1.408 2.8587-3.349 5.0987-5.824 6.72-2.432 1.6213-5.162 2.432-8.192 2.432-2.261 0-4.074-.5547-5.44-1.664-.512-.4267-.832-.64-.96-.64-.298 0-.448.384-.448 1.152v.448c0 1.1947.171 2.2187.512 3.072.342.8533.96 1.5573 1.856 2.112.512.384.896.7893 1.152 1.216.299.4267.448.96.448 1.6 0 .8533-.234 1.5147-.704 1.984-.426.4693-1.237.8107-2.432 1.024-1.194.2133-2.944.32-5.248.32h-4.864Zm14.08-17.152c1.024 0 1.92-.512 2.688-1.536.768-1.0667 1.152-2.624 1.152-4.672 0-3.1573-.426-5.888-1.28-8.192-.81-2.3467-2.048-3.52-3.712-3.52-1.152 0-2.048.5333-2.688 1.6-.64 1.024-.96 2.6027-.96 4.736v1.664c0 3.4133.427 5.9307 1.28 7.552.896 1.5787 2.07 2.368 3.52 2.368Zm35.529 6.528c-4.011 0-6.891-.9387-8.64-2.816-1.749-1.8773-2.624-4.1813-2.624-6.912 0-3.1147 1.365-5.5467 4.096-7.296 2.773-1.7493 6.379-2.816 10.816-3.2 2.005-.1707 3.349-.384 4.032-.64.683-.256.96-.832.832-1.728l-.064-.768c-.171-1.3227-.512-2.304-1.024-2.944-.512-.64-1.301-.96-2.368-.96-1.835 0-3.093.96-3.776 2.88-.512 1.28-1.237 2.24-2.176 2.88-.939.64-2.197.96-3.776.96-1.024 0-1.984-.384-2.88-1.152-.853-.8107-1.28-1.8133-1.28-3.008 0-1.792.768-3.3493 2.304-4.672 1.579-1.3653 3.648-2.4107 6.208-3.136 2.56-.768 5.291-1.152 8.192-1.152 3.499 0 6.251.512 8.256 1.536 2.048.9813 3.52 2.368 4.416 4.16.896 1.7493 1.493 3.9253 1.792 6.528l1.216 9.92c.085.8107.235 1.3867.448 1.728.213.3413.512.5547.896.64.256.0853.576.1493.96.192.427.0427.747.1067.96.192.725.3413 1.088 1.0027 1.088 1.984 0 1.1093-.341 2.176-1.024 3.2-.64.9813-1.579 1.792-2.816 2.432-1.195.5973-2.581.896-4.16.896-3.627 0-6.059-1.3653-7.296-4.096-.341-.6827-.619-1.024-.832-1.024-.171 0-.661.4907-1.472 1.472-.768.9813-1.984 1.8773-3.648 2.688-1.621.8107-3.84 1.216-6.656 1.216Zm6.528-7.104c.939 0 1.728-.384 2.368-1.152.683-.8107 1.024-1.8773 1.024-3.2 0-.4267-.021-.768-.064-1.024l-.256-1.6c-.085-.8533-.363-1.4507-.832-1.792-.427-.3413-1.131-.512-2.112-.512-2.645 0-3.968 1.5147-3.968 4.544 0 1.536.363 2.7093 1.088 3.52.768.8107 1.685 1.216 2.752 1.216Zm34.825 6.784c-2.219 0-3.904-.1067-5.056-.32-1.152-.1707-1.963-.4907-2.432-.96-.469-.4693-.704-1.152-.704-2.048 0-1.152.512-2.0693 1.536-2.752.853-.512 1.408-1.28 1.664-2.304.256-1.0667.384-2.7093.384-4.928V21.104c0-2.176-.491-3.4773-1.472-3.904-.811-.3413-1.408-.704-1.792-1.088-.384-.384-.576-.9173-.576-1.6 0-.8533.256-1.5147.768-1.984.512-.512 1.259-1.0027 2.24-1.472 1.408-.6827 3.072-1.216 4.992-1.6 1.963-.42667 3.861-.64 5.696-.64 1.365 0 2.368.23466 3.008.704.683.46933 1.024 1.3227 1.024 2.56v28.992c0 2.2613.128 3.904.384 4.928s.811 1.8133 1.664 2.368c1.067.7253 1.6 1.6427 1.6 2.752 0 .896-.235 1.5787-.704 2.048-.427.4693-1.216.7893-2.368.96-1.152.2133-2.837.32-5.056.32h-4.8Z"/>
  <path stroke="#598B8B" stroke-linecap="round" stroke-linejoin="round" stroke-width="3" d="m313 50.6842-7.627-7.4992c-1.184-1.1645-2.794-1.8166-4.468-1.8166h-2.116l-3.158 1.5526h-6.316c-1.737 0-3.158 1.3974-3.158 3.1053v3.1053"/>
  <path stroke="#598B8B" stroke-linecap="round" stroke-linejoin="round" stroke-width="3" d="m303.526 60-3.158-3.1053H281.42L267.209 42.921l2.479-.6055c2.416-.59 4.99-.0466 6.932 1.4905l6.379 5.3256h12.632"/>
  <path stroke="#DE5E49" stroke-linecap="round" stroke-linejoin="round" stroke-width="3" d="m288.052 32.0526-.316 1.5526-3.158 3.1053h-3.158l-3.158-3.1053-3.158 3.1053h-3.158l-3.158-3.1053-2.669-13.1352c-.315-1.5371 0-3.1208.885-4.425 1.105-1.6458 2.984-2.624 4.989-2.624h12.585M278.262 13.4211l-3.158-6.21053"/>
  <path stroke="#F08E40" stroke-linecap="round" stroke-linejoin="round" stroke-width="3" d="M296.231 13.3435c.521-3.214-2.021-6.13293-5.337-6.13293s-5.842 2.91893-5.337 6.13293l3.505 21.83c.142.885.916 1.5371 1.832 1.5371s1.69-.6521 1.832-1.5371l3.505-21.83Z"/>
  <path stroke="#F08E40" stroke-linecap="round" stroke-linejoin="round" stroke-width="2" d="m289.315 2.55263 1.579 4.6579L294.052 1"/>
</svg>
